<svg width="31" height="31" fill="none" xmlns="http://www.w3.org/2000/svg"><circle cx="15.5" cy="15.5" r="15.5" fill="#E5E4ED"/><g opacity=".8" fill="#7A7687"><path d="M10.946 19.646V12.02H8v-1.014h6.96v1.014h-2.946v7.626h-1.068ZM14.26 21.086v-2.454c.317 0 .573-.08.769-.24.2-.16.356-.376.468-.648.112-.276.196-.586.252-.93.06-.344.108-.7.144-1.068.052-.52.094-1.024.126-1.512.036-.488.068-.994.096-1.518.028-.524.06-1.096.096-1.716l5.43.006v7.626h.63v2.454h-1.068v-1.44h-5.874v1.44H14.26Zm1.873-2.454h4.44V12.02l-3.372-.006-.072 1.338a47.994 47.994 0 0 1-.198 2.658c-.044.448-.094.836-.15 1.164a3.639 3.639 0 0 1-.228.84c-.1.232-.24.438-.42.618Z"/></g></svg>