<svg width="81" height="13" fill="none" xmlns="http://www.w3.org/2000/svg"><path d="M6.5 0c.293 0 .563.147.707.383L9.03 3.381l3.312.594c.29.052.528.247.619.509a.715.715 0 0 1-.182.748l-2.404 2.372.608 3.596a.73.73 0 0 1-.319.723.865.865 0 0 1-.837.073L6.5 10.504l-3.327 1.492a.865.865 0 0 1-.837-.073.73.73 0 0 1-.319-.723l.608-3.596L.22 5.232a.716.716 0 0 1-.182-.748.795.795 0 0 1 .62-.51l3.31-.593L5.794.383A.825.825 0 0 1 6.5 0ZM23.5 0c.293 0 .563.147.707.383l1.823 2.998 3.312.594c.29.052.528.247.619.509a.715.715 0 0 1-.182.748l-2.404 2.372.608 3.596a.73.73 0 0 1-.319.723.865.865 0 0 1-.837.073L23.5 10.504l-3.327 1.492a.865.865 0 0 1-.837-.073.73.73 0 0 1-.319-.723l.608-3.596-2.404-2.372a.715.715 0 0 1-.182-.748.795.795 0 0 1 .62-.51l3.31-.593L22.793.383A.825.825 0 0 1 23.5 0ZM40.5 0c.293 0 .563.147.708.383l1.822 2.998 3.312.594c.29.052.528.247.619.509a.715.715 0 0 1-.182.748l-2.404 2.372.608 3.596a.73.73 0 0 1-.319.723.865.865 0 0 1-.837.073L40.5 10.504l-3.327 1.492a.865.865 0 0 1-.837-.073.73.73 0 0 1-.319-.723l.608-3.596-2.404-2.372a.715.715 0 0 1-.182-.748.795.795 0 0 1 .62-.51l3.31-.593L39.793.383A.825.825 0 0 1 40.5 0ZM57.5 0c.293 0 .563.147.708.383l1.822 2.998 3.312.594c.29.052.528.247.619.509a.715.715 0 0 1-.182.748l-2.404 2.372.608 3.596a.73.73 0 0 1-.319.723.865.865 0 0 1-.837.073L57.5 10.504l-3.327 1.492a.865.865 0 0 1-.837-.073.73.73 0 0 1-.319-.723l.608-3.596-2.404-2.372a.715.715 0 0 1-.182-.748.795.795 0 0 1 .62-.51l3.31-.593L56.793.383A.825.825 0 0 1 57.5 0Z" fill="#FFC536"/><path d="M74.5 0c.293 0 .563.147.707.383l1.823 2.998 3.312.594c.29.052.528.247.619.509a.715.715 0 0 1-.182.748l-2.404 2.372.608 3.596a.73.73 0 0 1-.319.723.865.865 0 0 1-.837.073L74.5 10.504l-3.327 1.492a.865.865 0 0 1-.837-.073.73.73 0 0 1-.319-.723l.608-3.596-2.404-2.372a.715.715 0 0 1-.182-.748.795.795 0 0 1 .62-.51l3.31-.593L73.794.383A.825.825 0 0 1 74.5 0Z" fill="#7A7687" opacity=".3"/></svg>