<svg width="40" height="24" fill="none" xmlns="http://www.w3.org/2000/svg"><path d="M40 11.985c0 6.576-5.354 11.984-12 11.984-6.585 0-12-5.408-12-11.985C16 5.409 21.354 0 27.938 0 34.646 0 40 5.408 40 11.985Z" fill="#F9B50B"/><path d="M23.939 12.046c0-.86-.123-1.72-.247-2.52h-7.384c.061-.43.184-.799.307-1.29H23.2c-.123-.43-.308-.86-.492-1.291h-5.6c.184-.43.43-.8.677-1.29h4.246a8.39 8.39 0 0 0-.923-1.291h-2.339c.37-.43.739-.8 1.231-1.23C17.908 1.168 15.077 0 11.938 0 5.415.184 0 5.408 0 11.985c0 6.576 5.354 11.984 12 11.984 3.139 0 5.908-1.23 8.062-3.134.43-.37.8-.8 1.23-1.291h-2.461a8.79 8.79 0 0 1-.862-1.23h4.185c.246-.368.492-.798.677-1.29h-5.6a6.282 6.282 0 0 1-.493-1.29h6.585c.37-1.107.616-2.336.616-3.688Z" fill="#C8191C"/><path d="m16.247 15.057.184-1.106c-.061 0-.184.061-.307.061-.431 0-.493-.245-.431-.368l.37-2.213h.676l.185-1.23h-.616l.123-.737H15.14s-.738 4.18-.738 4.671c0 .738.43 1.107 1.046 1.107.369 0 .677-.123.8-.185ZM16.677 13.028c0 1.783 1.231 2.213 2.216 2.213.923 0 1.354-.184 1.354-.184l.246-1.23s-.677.308-1.354.308c-1.415 0-1.17-1.045-1.17-1.045h2.585s.185-.799.185-1.168c0-.799-.43-1.844-1.846-1.844-1.231-.061-2.216 1.353-2.216 2.95Zm2.216-1.843c.677 0 .554.799.554.86H18.03c.062-.061.185-.86.862-.86ZM26.953 15.057l.246-1.413s-.615.307-1.107.307c-.862 0-1.293-.676-1.293-1.475 0-1.536.739-2.335 1.662-2.335.615 0 1.17.368 1.17.368l.184-1.352s-.739-.307-1.477-.307c-1.477 0-2.892 1.29-2.892 3.688 0 1.598.738 2.642 2.276 2.642.554.062 1.231-.123 1.231-.123ZM9.293 10.018c-.862 0-1.539.246-1.539.246L7.57 11.37s.554-.246 1.416-.246c.43 0 .8.062.8.43 0 .246-.062.308-.062.308H9.17c-1.107 0-2.276.43-2.276 1.905 0 1.168.738 1.414 1.23 1.414.862 0 1.293-.554 1.354-.554l-.061.492h1.046l.492-3.503c0-1.537-1.23-1.598-1.661-1.598Zm.246 2.827c0 .184-.123 1.23-.862 1.23-.369 0-.492-.308-.492-.492 0-.308.184-.738 1.17-.738h.184ZM12.184 15.18c.308 0 1.908.061 1.908-1.66 0-1.598-1.539-1.29-1.539-1.905 0-.307.247-.43.677-.43.185 0 .862.061.862.061l.185-1.167s-.431-.123-1.231-.123c-.923 0-1.908.369-1.908 1.66 0 1.474 1.6 1.351 1.6 1.904 0 .37-.43.43-.738.43-.554 0-1.17-.184-1.17-.184l-.184 1.168c.123.123.492.246 1.538.246ZM37.539 9.034l-.247 1.72s-.492-.614-1.23-.614c-1.17 0-2.154 1.414-2.154 3.073 0 1.045.492 2.09 1.6 2.09.738 0 1.23-.492 1.23-.492l-.06.43h1.291l.923-6.084-1.353-.123Zm-.616 3.319c0 .676-.307 1.598-1.046 1.598-.43 0-.677-.369-.677-1.045 0-1.045.431-1.66 1.046-1.66.431.062.677.37.677 1.107ZM2.337 15.118l.739-4.548.123 4.548h.861l1.662-4.548-.677 4.548h1.354l1.046-6.084H5.353L4.06 12.783 4 9.033H2.153l-1.046 6.085h1.23Z" fill="#F8F7F3"/><path d="M22.03 15.118c.37-2.09.432-3.81 1.355-3.503.123-.799.307-1.167.43-1.475h-.246c-.553 0-1.046.738-1.046.738l.123-.676h-1.23l-.8 4.916h1.415ZM29.908 10.018c-.861 0-1.538.246-1.538.246l-.185 1.106s.554-.246 1.415-.246c.431 0 .8.062.8.43 0 .246-.061.308-.061.308h-.554c-1.108 0-2.277.43-2.277 1.905 0 1.168.739 1.414 1.23 1.414.862 0 1.293-.554 1.355-.554l-.062.492h1.17l.492-3.503c0-1.537-1.354-1.598-1.785-1.598Zm.308 2.827c0 .184-.123 1.23-.862 1.23-.369 0-.492-.308-.492-.492 0-.308.185-.738 1.17-.738h.184ZM32.678 15.118c.37-2.09.431-3.81 1.354-3.503.123-.799.308-1.167.43-1.475h-.245c-.554 0-1.046.738-1.046.738l.123-.676h-1.231l-.8 4.916h1.415Z" fill="#F8F7F3"/></svg>