<svg width="60" height="19" fill="none" xmlns="http://www.w3.org/2000/svg"><path d="M53.236.918h-11.31c.66 3.72 4.283 7.22 8.236 7.22h9.004c.11-.329.11-.876.11-1.204 0-3.281-2.745-6.016-6.04-6.016Z" fill="url(#a)"/><path d="M43.373 8.86v9.385h5.694v-4.976h5.011c2.733 0 5.125-1.922 5.922-4.41H43.373ZM23.855.918v17.327h4.893s1.223 0 1.89-1.238c3.337-6.638 4.338-8.663 4.338-8.663h.668v9.9h5.56V.919h-4.893s-1.224.112-1.89 1.238c-2.781 5.738-4.338 8.663-4.338 8.663h-.667V.918h-5.561ZM0 18.245V.918h5.575s1.562 0 2.454 2.475c2.23 6.526 2.453 7.426 2.453 7.426s.446-1.575 2.453-7.426C13.827.918 15.388.918 15.388.918h5.576v17.327h-5.576V8.906h-.669l-3.122 9.339H9.144L6.022 8.906h-.67v9.339H0Z" fill="#4FAD50"/><defs><linearGradient id="a" x1="-.068" y1="9.706" x2="59.865" y2="9.706" gradientUnits="userSpaceOnUse"><stop stop-color="#27B1E6"/><stop offset="1" stop-color="#148ACA"/></linearGradient></defs></svg>