<svg width="58" height="19" fill="none" xmlns="http://www.w3.org/2000/svg"><path d="M54.087.324h-3.658c-1.106 0-1.957.333-2.467 1.416l-6.976 15.575h4.934s.85-2.082 1.02-2.582h6.04c.17.583.596 2.5.596 2.5H58L54.087.323Zm-5.785 10.911c.425-1 1.871-4.747 1.871-4.747 0 .083.426-1 .596-1.583l.34 1.5s.936 4.08 1.106 4.914h-3.913v-.084ZM41.173 12.167c0 3.552-3.187 5.92-8.134 5.92-2.096 0-4.109-.422-5.199-.93l.67-3.89.588.253c1.51.677 2.515.93 4.36.93 1.342 0 2.767-.507 2.767-1.691 0-.761-.586-1.27-2.431-2.115-1.761-.846-4.11-2.2-4.11-4.652 0-3.384 3.271-5.668 7.883-5.668 1.761 0 3.27.339 4.193.762l-.67 3.721-.336-.338c-.839-.338-1.929-.677-3.522-.677-1.761.085-2.6.846-2.6 1.523 0 .761 1.007 1.353 2.6 2.115 2.683 1.268 3.941 2.707 3.941 4.737Z" fill="#3362AB"/><path d="M0 .67.083.325h7.163c.999 0 1.748.347 1.998 1.473l1.583 7.795C9.244 5.435 5.58 2.057 0 .671Z" fill="#F9B50B"/><path d="m20.88.408-7.21 16.907H8.783L4.639 3.156c2.983 1.916 5.469 4.914 6.38 6.996l.497 1.75L15.991.324h4.888v.084ZM23.114.324h4.726l-3.007 16.992h-4.726L23.114.323Z" fill="#3362AB"/></svg>