<svg width="24" height="24" fill="none" xmlns="http://www.w3.org/2000/svg"><g fill="#07745E"><path fill-rule="evenodd" clip-rule="evenodd" d="M14.606 3.25a.75.75 0 0 1 .53.22l2.828 2.828a.75.75 0 0 1 0 1.06L8.772 16.55a.75.75 0 0 1-.34.196l-3.829 1a.749.749 0 0 1-.915-.915l1-3.83a.75.75 0 0 1 .195-.34l9.193-9.192a.75.75 0 0 1 .53-.219Zm0 1.81-8.519 8.518-.625 2.393 2.393-.625 8.518-8.519-1.767-1.767Z"/><path d="M3.47 19.47a.75.75 0 0 1 .53-.22h15a.75.75 0 1 1 0 1.5H4a.75.75 0 0 1-.53-1.28Z"/></g></svg>