<svg width="24" height="25" fill="none" xmlns="http://www.w3.org/2000/svg"><path d="M9.706 10.202a3.25 3.25 0 1 1 4.596 4.596 3.25 3.25 0 0 1-4.596-4.596Z" fill="#202020"/><path fill-rule="evenodd" clip-rule="evenodd" d="M17.235 3.586a47.472 47.472 0 0 0-10.46 0c-1.9.212-3.43 1.707-3.653 3.613a45.672 45.672 0 0 0 0 10.61c.223 1.906 1.754 3.4 3.653 3.614 3.476.385 6.984.385 10.46 0 1.899-.213 3.43-1.708 3.653-3.614a45.67 45.67 0 0 0 0-10.61c-.223-1.906-1.754-3.401-3.653-3.613Zm-.937 3.21a1 1 0 1 1 1.414 1.415 1 1 0 0 1-1.414-1.414Zm-7.652 2.35a4.75 4.75 0 1 0 6.718 6.717 4.75 4.75 0 0 0-6.718-6.718Z" fill="#202020"/></svg>