<svg width="24" height="25" fill="none" xmlns="http://www.w3.org/2000/svg"><g fill="#202020"><path fill-rule="evenodd" clip-rule="evenodd" d="M6.95 7.523c-.016 2.756 2.224 5.036 4.956 5.046 2.76.009 5.015-2.219 5.03-4.969.013-2.815-2.206-5.093-4.97-5.1-2.759-.007-5 2.237-5.017 5.023Zm7.257-.933c.122.298.184.617.182.939v.001A2.44 2.44 0 0 1 11.96 10a2.443 2.443 0 0 1-2.462-2.44 2.447 2.447 0 0 1 4.71-.97Z"/><path d="M6.88 15.038c1.182.931 2.563 1.311 4.094 1.471l-.104.114c-.055.06-.1.11-.148.159L9.714 17.8c-.787.794-1.574 1.589-2.363 2.382-.233.234-.4.494-.416.836-.025.505.287 1.006.775 1.246.46.224.932.153 1.328-.24a168.24 168.24 0 0 0 2.624-2.653c.216-.224.334-.273.58-.015.563.594 1.141 1.173 1.72 1.752.284.286.57.571.852.858.225.227.477.389.8.412.511.035 1.031-.294 1.264-.794.213-.458.132-.945-.254-1.339-.725-.738-1.455-1.474-2.184-2.21l-1.23-1.241a6.414 6.414 0 0 1-.202-.218c-.02-.02-.04-.044-.063-.069.837-.1 1.684-.252 2.457-.554.817-.319 1.553-.776 2.164-1.409.4-.411.403-.931.08-1.461-.284-.465-.776-.66-1.304-.524-.27.07-.505.208-.725.378-2.21 1.497-5.238 1.455-7.44-.069a2.38 2.38 0 0 0-.34-.201c-.61-.291-1.199-.156-1.549.35-.41.59-.358 1.164.16 1.664.107.103.225.196.344.288l.088.069Z"/></g></svg>