<svg width="20" height="20" fill="none" xmlns="http://www.w3.org/2000/svg"><g fill-rule="evenodd" clip-rule="evenodd" fill="#088269"><path d="M3.538 3A.538.538 0 0 0 3 3.538v5.026c0 .297.241.539.538.539h5.026a.538.538 0 0 0 .539-.539V3.538A.538.538 0 0 0 8.564 3H3.538Zm.539 5.026v-3.95h3.949v3.95h-3.95ZM11.436 3a.538.538 0 0 0-.539.538v5.026c0 .297.242.539.539.539h5.026A.538.538 0 0 0 17 8.564V3.538A.538.538 0 0 0 16.462 3h-5.026Zm.538 5.026v-3.95h3.95v3.95h-3.95ZM3 11.436c0-.297.241-.539.538-.539h5.026c.297 0 .539.242.539.539v5.026a.538.538 0 0 1-.539.538H3.538A.538.538 0 0 1 3 16.462v-5.026Zm1.077.538v3.95h3.949v-3.95h-3.95ZM11.436 10.897a.539.539 0 0 0-.539.539v5.026c0 .297.242.538.539.538h5.026a.539.539 0 0 0 .538-.538v-5.026a.539.539 0 0 0-.538-.539h-5.026Zm.538 5.026v-3.949h3.95v3.95h-3.95Z"/></g></svg>