<svg width="24" height="25" fill="none" xmlns="http://www.w3.org/2000/svg"><path d="M22.46 6.5c-.77.35-1.6.58-2.46.69.88-.53 1.56-1.37 1.88-2.38-.83.5-1.75.85-2.72 1.05C18.37 5 17.26 4.5 16 4.5c-2.35 0-4.27 1.92-4.27 4.29 0 .34.04.67.11.98C8.28 9.59 5.11 7.88 3 5.29c-.37.63-.58 1.37-.58 2.15 0 1.49.75 2.81 1.91 3.56-.71 0-1.37-.2-1.95-.5v.03c0 2.08 1.48 3.82 3.44 4.21a4.22 4.22 0 0 1-1.93.07 4.28 4.28 0 0 0 4 2.98 8.521 8.521 0 0 1-5.33 1.84c-.34 0-.68-.02-1.02-.06 1.9 1.22 4.16 1.93 6.58 1.93 7.88 0 12.21-6.54 12.21-12.21 0-.19 0-.37-.01-.56.84-.6 1.56-1.36 2.14-2.23Z" fill="#202020"/></svg>