<svg width="24" height="24" fill="none" xmlns="http://www.w3.org/2000/svg"><g fill="#202020"><path fill-rule="evenodd" clip-rule="evenodd" d="M14.72 16.256c1.341 0 2.58-.437 3.583-1.177l3.63 3.63a.906.906 0 1 0 1.282-1.281l-3.63-3.63a6.041 6.041 0 1 0-4.865 2.458Zm0-1.812c1.126 0 2.15-.44 2.908-1.158a.92.92 0 0 1 .163-.164 4.229 4.229 0 1 0-3.071 1.322Z"/><path d="M1.43 5.684a.906.906 0 1 0 0 1.812h3.624a.906.906 0 1 0 0-1.812H1.43ZM1.43 11.725a.906.906 0 1 0 0 1.813h3.624a.906.906 0 1 0 0-1.813H1.43ZM.523 18.673c0-.5.406-.906.907-.906h9.665a.906.906 0 1 1 0 1.812H1.43a.906.906 0 0 1-.907-.906Z"/></g></svg>